<?xml version="1.0" encoding="UTF-8" standalone="no"?>
<!-- Created with Inkscape (http://www.inkscape.org/) -->

<svg
   xmlns:dc="http://purl.org/dc/elements/1.1/"
   xmlns:cc="http://creativecommons.org/ns#"
   xmlns:rdf="http://www.w3.org/1999/02/22-rdf-syntax-ns#"
   xmlns:svg="http://www.w3.org/2000/svg"
   xmlns="http://www.w3.org/2000/svg"
   xmlns:sodipodi="http://sodipodi.sourceforge.net/DTD/sodipodi-0.dtd"
   xmlns:inkscape="http://www.inkscape.org/namespaces/inkscape"
   width="100"
   height="100"
   viewBox="0 0 100 100"
   version="1.1"
   id="main-svg"
   inkscape:export-filename="D:\temp\temp.png"
   inkscape:version="0.92.3 (2405546, 2018-03-11)"
   sodipodi:docname="Bishop.svg">
  <metadata
     id="metadata1475">
    <rdf:RDF>
      <cc:Work
         rdf:about="">
        <dc:format>image/svg+xml</dc:format>
        <dc:type
           rdf:resource="http://purl.org/dc/dcmitype/StillImage" />
        <dc:title></dc:title>
      </cc:Work>
    </rdf:RDF>
  </metadata>
  <defs
     id="defs1473" />
  <sodipodi:namedview
     id="base"
     pagecolor="#ffffff"
     bordercolor="#666666"
     borderopacity="1.0"
     inkscape:pageopacity="0.0"
     inkscape:pageshadow="2"
     inkscape:zoom="7"
     inkscape:cx="45.928571"
     inkscape:cy="60.497159"
     inkscape:document-units="px"
     showgrid="true"
     units="px"
     inkscape:current-layer="main-svg">
    <inkscape:grid
       type="xygrid"
       id="main-grid"
       spacingx="10"
       spacingy="10" />
  </sodipodi:namedview>
  <g
     aria-label="♗"
     style="font-style:italic;font-variant:normal;font-weight:bold;font-stretch:normal;font-size:106.66666412px;line-height:100%;font-family:'Proxima Nova';-inkscape-font-specification:'Proxima Nova Bold Italic';font-variant-ligatures:normal;font-variant-position:normal;font-variant-caps:normal;font-variant-numeric:normal;font-variant-alternates:normal;font-feature-settings:normal;text-indent:0;text-align:center;text-decoration:none;text-decoration-line:none;text-decoration-style:solid;text-decoration-color:#000000;letter-spacing:0px;word-spacing:0px;text-transform:none;writing-mode:lr-tb;direction:ltr;text-orientation:mixed;dominant-baseline:auto;baseline-shift:baseline;text-anchor:middle;white-space:normal;shape-padding:0;opacity:1;vector-effect:none;fill:#000000;fill-opacity:1;stroke:none;stroke-width:5;stroke-linecap:butt;stroke-linejoin:miter;stroke-miterlimit:4;stroke-dasharray:none;stroke-dashoffset:0;stroke-opacity:1;paint-order:stroke fill markers"
     id="text2022">
    <path
       d="m 94.270831,93.203122 h -11.71875 q 0,-1.822916 -3.020833,-1.822916 -0.677083,0 -5.208333,0.572916 -7.708333,0.9375 -9.583333,0.9375 -5.9375,0 -9.947917,-2.552083 -3.958333,-2.552083 -4.791666,-6.927083 -0.833334,4.375 -4.84375,6.927083 -3.958333,2.552083 -9.895833,2.552083 -1.875,0 -9.583333,-0.9375 -4.583334,-0.572916 -5.208334,-0.572916 -3.020833,0 -3.020833,1.822916 H 5.7291665 v -2.552083 q 0,-2.5 1.9270832,-5.104167 1.9270833,-2.604166 5.7812503,-4.114583 3.90625,-1.5625 9.479166,-1.5625 2.5,0 7.03125,0.677083 3.125,0.46875 4.375,0.46875 3.177083,0 4.635416,-0.729166 1.458334,-0.78125 3.333334,-3.59375 -6.979167,-1.145833 -9.270834,-3.541667 V 59.609373 q -7.343749,-5.15625 -7.343749,-13.125 0,-4.0625 2.03125,-7.34375 2.03125,-3.333333 4.947916,-5.833333 l 14.6875,-12.447916 q -4.583333,-1.979167 -4.583333,-6.822917 0,-3.020833 2.083333,-5.1041661 2.135416,-2.1354166 5.15625,-2.1354166 3.020833,0 5.104166,2.1354166 2.135417,2.0833331 2.135417,5.1041661 0,4.84375 -4.583333,6.822917 13.802083,11.666666 16.249999,13.958333 2.447917,2.291667 3.90625,5.364583 1.510417,3.020833 1.510417,6.302083 0,7.96875 -7.34375,13.125 v 13.541666 q -2.34375,2.395834 -9.322916,3.541667 1.927083,2.8125 3.385416,3.59375 1.458333,0.729166 4.635417,0.729166 1.197916,0 4.375,-0.46875 4.531249,-0.677083 7.031249,-0.677083 8.385417,0 12.760417,3.333333 4.427083,3.333334 4.427083,7.447917 z M 49.999999,18.098957 q 1.666666,0 2.864583,-1.197916 1.197917,-1.197917 1.197917,-2.864584 0,-1.666666 -1.197917,-2.8125 -1.197917,-1.197916 -2.864583,-1.197916 -1.666667,0 -2.864584,1.197916 -1.197916,1.145834 -1.197916,2.8125 0,1.666667 1.197916,2.864584 1.197917,1.197916 2.864584,1.197916 z m 14.062499,39.687499 q 3.229167,-1.197916 5.260417,-4.375 2.03125,-3.177083 2.03125,-6.927083 0,-5.625 -7.239583,-11.874999 Q 56.874999,28.30729 49.999999,22.057291 l -10.677083,9.479166 q -5.729167,5.052083 -7.1875,6.770833 -1.458333,1.666667 -2.5,3.958333 -0.989583,2.239584 -0.989583,4.21875 0,3.75 2.03125,6.927083 2.031249,3.177084 5.260416,4.375 8.802083,-2.34375 14.0625,-2.34375 5.208333,0 14.062499,2.34375 z M 57.864582,44.036457 h -6.354167 v 6.40625 h -3.020833 v -6.40625 h -6.40625 v -3.020834 h 6.40625 v -6.354166 h 3.020833 v 6.354166 h 6.354167 z m 6.09375,26.249999 v -2.8125 l -2.552084,-2.864583 2.552084,-1.71875 v -2.135417 q -6.875,-2.34375 -13.958333,-2.34375 -7.083333,0 -13.958333,2.34375 v 2.135417 l 2.552083,1.71875 -2.552083,2.864583 v 2.8125 q 4.739583,-1.71875 13.958333,-1.71875 9.21875,0 13.958333,1.71875 z m -9.6875,-6.927083 -4.270833,2.760417 -4.270833,-2.760417 4.270833,-2.8125 z m 7.96875,9.375 q -2.96875,-1.197917 -12.239583,-1.197917 -9.322917,0 -12.291667,1.197917 3.958334,1.666666 12.291667,1.666666 8.28125,0 12.239583,-1.666666 z m 29.010416,17.499999 q -1.666667,-7.395833 -13.854167,-7.395833 -1.666666,0 -6.145833,0.625 -4.270833,0.572917 -5.78125,0.572917 -4.0625,0 -6.302083,-1.770834 -2.239583,-1.71875 -4.479166,-5.260416 h -3.177084 q 0,12.864583 13.229167,12.864583 1.5625,0 8.854166,-0.833333 5.15625,-0.625 5.9375,-0.625 2.916667,0 4.6875,1.822916 z M 48.489582,77.005206 h -3.177083 q -2.239583,3.541666 -4.53125,5.260416 -2.239583,1.770834 -6.25,1.770834 -1.510417,0 -5.78125,-0.572917 -4.479166,-0.625 -6.145833,-0.625 -12.1875,0 -13.9062496,7.395833 h 7.0312496 q 1.822917,-1.822916 4.739583,-1.822916 0.78125,0 5.9375,0.625 7.239583,0.833333 8.854167,0.833333 13.229166,0 13.229166,-12.864583 z"
       style="font-style:normal;font-variant:normal;font-weight:normal;font-stretch:normal;font-family:'Arial Unicode MS';-inkscape-font-specification:'Arial Unicode MS'"
       id="path2024" />
  </g>
</svg>
