<?xml version="1.0" encoding="UTF-8" standalone="no"?>
<!-- Created with Inkscape (http://www.inkscape.org/) -->

<svg
   xmlns:dc="http://purl.org/dc/elements/1.1/"
   xmlns:cc="http://creativecommons.org/ns#"
   xmlns:rdf="http://www.w3.org/1999/02/22-rdf-syntax-ns#"
   xmlns:svg="http://www.w3.org/2000/svg"
   xmlns="http://www.w3.org/2000/svg"
   xmlns:sodipodi="http://sodipodi.sourceforge.net/DTD/sodipodi-0.dtd"
   xmlns:inkscape="http://www.inkscape.org/namespaces/inkscape"
   width="100"
   height="100"
   viewBox="0 0 100 100"
   version="1.1"
   id="main-svg"
   inkscape:export-filename="D:\temp\temp.png"
   inkscape:version="0.92.3 (2405546, 2018-03-11)"
   sodipodi:docname="Knight.svg">
  <metadata
     id="metadata1475">
    <rdf:RDF>
      <cc:Work
         rdf:about="">
        <dc:format>image/svg+xml</dc:format>
        <dc:type
           rdf:resource="http://purl.org/dc/dcmitype/StillImage" />
        <dc:title></dc:title>
      </cc:Work>
    </rdf:RDF>
  </metadata>
  <defs
     id="defs1473" />
  <sodipodi:namedview
     id="base"
     pagecolor="#ffffff"
     bordercolor="#666666"
     borderopacity="1.0"
     inkscape:pageopacity="0.0"
     inkscape:pageshadow="2"
     inkscape:zoom="4.9"
     inkscape:cx="69.515196"
     inkscape:cy="48.175833"
     inkscape:document-units="px"
     showgrid="true"
     units="px"
     inkscape:current-layer="main-svg">
    <inkscape:grid
       type="xygrid"
       id="main-grid"
       spacingx="10"
       spacingy="10" />
  </sodipodi:namedview>
  <path
     inkscape:connector-curvature="0"
     id="path4524"
     style="font-style:normal;font-variant:normal;font-weight:normal;font-stretch:normal;font-size:medium;line-height:100%;font-family:'Arial Unicode MS';-inkscape-font-specification:'Arial Unicode MS';font-variant-ligatures:normal;font-variant-position:normal;font-variant-caps:normal;font-variant-numeric:normal;font-variant-alternates:normal;font-feature-settings:normal;text-indent:0;text-align:center;text-decoration:none;text-decoration-line:none;text-decoration-style:solid;text-decoration-color:#000000;letter-spacing:0px;word-spacing:0px;text-transform:none;writing-mode:lr-tb;direction:ltr;text-orientation:mixed;dominant-baseline:auto;baseline-shift:baseline;text-anchor:middle;white-space:normal;shape-padding:0;fill:#000000;fill-opacity:1;stroke:none;stroke-width:5;stroke-linecap:butt;stroke-linejoin:miter;stroke-miterlimit:4;stroke-dasharray:none;stroke-dashoffset:0;stroke-opacity:1;paint-order:stroke fill markers"
     d="M 94.583332,94.635414 H 30.15625 q 0,-9.739583 2.447917,-14.947916 2.447917,-5.208334 8.645833,-8.802084 7.864583,-4.531249 7.864583,-11.458333 0,-1.5625 -1.041666,-3.177083 -2.760417,2.239583 -14.739583,5.104167 -4.166667,1.197916 -5.104167,8.020833 -0.520833,3.229166 -2.135416,5.052083 -1.5625,1.770833 -3.75,1.770833 -5.625,0 -11.302083,-4.53125 -5.6250003,-4.583333 -5.6250003,-10.208333 0,-4.375 6.0416663,-12.447916 4.375,-5.885417 5.572917,-8.229167 1.197916,-2.343749 1.614583,-5.781249 0.416667,-3.75 0.885417,-5.260417 0.520833,-1.5625 2.291666,-4.21875 2.34375,-3.4375 2.916667,-5.885416 0.625,-2.447917 0.625,-6.666667 V 6.4583326 q 4.895833,2.1354166 9.479166,9.9999994 l 2.760417,-0.104166 q 1.979167,-3.489584 2.96875,-10.9895834 3.645833,1.6666667 6.666666,6.3541664 3.020834,4.635417 4.21875,6.458333 22.395833,2.864584 32.760416,16.5625 10.364583,13.645833 10.364583,46.458332 z m -5.364583,-2.96875 v -8.333333 q 0,-33.124999 -9.114583,-46.354166 -9.114583,-13.281249 -29.895833,-15.833333 -1.197916,-0.885416 -3.28125,-4.583333 -2.760416,-4.84375 -4.531249,-5.989583 -1.197917,6.197916 -1.354167,7.447916 -0.15625,1.197917 -1.25,3.333334 Q 38.75,23.489582 37.5,23.489582 q -1.041666,0 -1.041666,-1.5625 0,-0.885416 0.416666,-2.135416 l -6.822916,3.28125 -0.208334,-1.145834 q 1.145834,-1.71875 2.447917,-2.239583 0,-3.59375 -3.958333,-7.291667 0,5.833334 -0.677083,8.333334 -0.625,2.447916 -3.28125,6.510416 -1.614584,2.552083 -2.03125,3.802083 -0.416667,1.25 -0.729167,4.739584 -0.208333,2.552083 -1.354167,4.999999 -1.09375,2.395834 -6.354166,9.947917 -3.385417,4.84375 -4.4791667,6.822916 -1.0416666,1.927084 -1.0416666,3.697917 0,3.645833 2.5520833,6.302083 2.552083,2.65625 4.0625,2.65625 0.78125,0 2.083333,-2.552083 2.34375,-4.6875 3.802083,-4.6875 1.770834,0 1.770834,1.927083 0,1.510417 -1.458334,3.489583 -1.458333,1.71875 -2.447916,3.75 1.458333,1.09375 3.385416,1.09375 2.34375,0 3.125,-4.270833 1.354167,-8.645833 6.510417,-10.15625 3.854166,-0.9375 7.916666,-2.135416 4.114583,-1.197917 6.145833,-2.34375 2.083334,-1.197917 3.177084,-2.5 1.145833,-1.302083 3.125,-5.260417 0.416666,0.3125 0.833333,0.729167 -1.041667,3.177083 -1.041667,5.677083 l 0.208334,6.5625 q 0,8.697916 -9.0625,13.697916 -4.895833,2.65625 -7.1875,6.927084 -2.239583,4.270833 -2.239583,11.510416 z M 35.677084,34.270832 q -1.979167,0.46875 -3.28125,1.510417 0.208333,1.666666 0.208333,2.03125 0,0.729166 -1.822917,1.666666 l -2.239583,-0.3125 -0.416666,0.677083 v 2.239584 q -2.447917,-1.927084 -2.447917,-3.229167 0,-1.822916 2.708333,-3.645833 2.760417,-1.875 4.53125,-1.875 h 2.34375 z M 15.416668,58.072915 q -0.416667,1.40625 -1.614584,2.34375 l 1.510417,1.822916 q 0,0.885417 -0.625,1.458334 -0.625,0.572916 -1.40625,0.572916 -1.614583,0 -1.614583,-2.5 0,-1.5625 1.041666,-2.604166 1.09375,-1.09375 2.708334,-1.09375 z" />
</svg>
